<svg xmlns="http://www.w3.org/2000/svg" width="900" height="280" viewBox="0 0 900 280" role="img" aria-labelledby="title desc">
<title id="title">Baleen</title>
<desc id="desc">Blue pixel whale and white Baleen title. Your coding companion.</desc>
<rect width="900" height="280" rx="16" fill="#121212"/>
<g shape-rendering="crispEdges">
<rect x="134" y="55" width="12" height="12" fill="#7DE3F4"/>
<rect x="182" y="55" width="12" height="12" fill="#7DE3F4"/>
<rect x="146" y="67" width="12" height="12" fill="#7DE3F4"/>
<rect x="170" y="67" width="12" height="12" fill="#7DE3F4"/>
<rect x="158" y="79" width="12" height="12" fill="#7DE3F4"/>
<rect x="122" y="103" width="12" height="12" fill="#389DFA"/>
<rect x="134" y="103" width="12" height="12" fill="#389DFA"/>
<rect x="146" y="103" width="12" height="12" fill="#389DFA"/>
<rect x="158" y="103" width="12" height="12" fill="#389DFA"/>
<rect x="170" y="103" width="12" height="12" fill="#389DFA"/>
<rect x="182" y="103" width="12" height="12" fill="#389DFA"/>
<rect x="194" y="103" width="12" height="12" fill="#389DFA"/>
<rect x="206" y="103" width="12" height="12" fill="#389DFA"/>
<rect x="218" y="103" width="12" height="12" fill="#389DFA"/>
<rect x="98" y="115" width="12" height="12" fill="#389DFA"/>
<rect x="110" y="115" width="12" height="12" fill="#389DFA"/>
<rect x="122" y="115" width="12" height="12" fill="#389DFA"/>
<rect x="134" y="115" width="12" height="12" fill="#389DFA"/>
<rect x="146" y="115" width="12" height="12" fill="#389DFA"/>
<rect x="158" y="115" width="12" height="12" fill="#389DFA"/>
<rect x="170" y="115" width="12" height="12" fill="#389DFA"/>
<rect x="182" y="115" width="12" height="12" fill="#389DFA"/>
<rect x="194" y="115" width="12" height="12" fill="#389DFA"/>
<rect x="206" y="115" width="12" height="12" fill="#389DFA"/>
<rect x="218" y="115" width="12" height="12" fill="#389DFA"/>
<rect x="230" y="115" width="12" height="12" fill="#389DFA"/>
<rect x="242" y="115" width="12" height="12" fill="#389DFA"/>
<rect x="86" y="127" width="12" height="12" fill="#389DFA"/>
<rect x="98" y="127" width="12" height="12" fill="#389DFA"/>
<rect x="110" y="127" width="12" height="12" fill="#389DFA"/>
<rect x="122" y="127" width="12" height="12" fill="#389DFA"/>
<rect x="134" y="127" width="12" height="12" fill="#389DFA"/>
<rect x="146" y="127" width="12" height="12" fill="#389DFA"/>
<rect x="158" y="127" width="12" height="12" fill="#389DFA"/>
<rect x="170" y="127" width="12" height="12" fill="#389DFA"/>
<rect x="182" y="127" width="12" height="12" fill="#389DFA"/>
<rect x="194" y="127" width="12" height="12" fill="#389DFA"/>
<rect x="206" y="127" width="12" height="12" fill="#389DFA"/>
<rect x="218" y="127" width="12" height="12" fill="#389DFA"/>
<rect x="230" y="127" width="12" height="12" fill="#389DFA"/>
<rect x="242" y="127" width="12" height="12" fill="#389DFA"/>
<rect x="254" y="127" width="12" height="12" fill="#389DFA"/>
<rect x="86" y="139" width="12" height="12" fill="#389DFA"/>
<rect x="98" y="139" width="12" height="12" fill="#389DFA"/>
<rect x="110" y="139" width="12" height="12" fill="#389DFA"/>
<rect x="122" y="139" width="12" height="12" fill="#EAF7FF"/>
<rect x="134" y="139" width="12" height="12" fill="#389DFA"/>
<rect x="146" y="139" width="12" height="12" fill="#389DFA"/>
<rect x="158" y="139" width="12" height="12" fill="#389DFA"/>
<rect x="170" y="139" width="12" height="12" fill="#389DFA"/>
<rect x="182" y="139" width="12" height="12" fill="#389DFA"/>
<rect x="194" y="139" width="12" height="12" fill="#389DFA"/>
<rect x="206" y="139" width="12" height="12" fill="#389DFA"/>
<rect x="218" y="139" width="12" height="12" fill="#389DFA"/>
<rect x="230" y="139" width="12" height="12" fill="#389DFA"/>
<rect x="242" y="139" width="12" height="12" fill="#389DFA"/>
<rect x="254" y="139" width="12" height="12" fill="#389DFA"/>
<rect x="302" y="139" width="12" height="12" fill="#389DFA"/>
<rect x="326" y="139" width="12" height="12" fill="#389DFA"/>
<rect x="86" y="151" width="12" height="12" fill="#389DFA"/>
<rect x="98" y="151" width="12" height="12" fill="#389DFA"/>
<rect x="110" y="151" width="12" height="12" fill="#389DFA"/>
<rect x="122" y="151" width="12" height="12" fill="#389DFA"/>
<rect x="134" y="151" width="12" height="12" fill="#389DFA"/>
<rect x="146" y="151" width="12" height="12" fill="#389DFA"/>
<rect x="158" y="151" width="12" height="12" fill="#389DFA"/>
<rect x="170" y="151" width="12" height="12" fill="#389DFA"/>
<rect x="182" y="151" width="12" height="12" fill="#389DFA"/>
<rect x="194" y="151" width="12" height="12" fill="#389DFA"/>
<rect x="206" y="151" width="12" height="12" fill="#389DFA"/>
<rect x="218" y="151" width="12" height="12" fill="#389DFA"/>
<rect x="230" y="151" width="12" height="12" fill="#389DFA"/>
<rect x="242" y="151" width="12" height="12" fill="#389DFA"/>
<rect x="254" y="151" width="12" height="12" fill="#389DFA"/>
<rect x="302" y="151" width="12" height="12" fill="#389DFA"/>
<rect x="314" y="151" width="12" height="12" fill="#389DFA"/>
<rect x="326" y="151" width="12" height="12" fill="#389DFA"/>
<rect x="86" y="163" width="12" height="12" fill="#389DFA"/>
<rect x="98" y="163" width="12" height="12" fill="#389DFA"/>
<rect x="110" y="163" width="12" height="12" fill="#389DFA"/>
<rect x="122" y="163" width="12" height="12" fill="#389DFA"/>
<rect x="134" y="163" width="12" height="12" fill="#389DFA"/>
<rect x="146" y="163" width="12" height="12" fill="#389DFA"/>
<rect x="158" y="163" width="12" height="12" fill="#389DFA"/>
<rect x="170" y="163" width="12" height="12" fill="#389DFA"/>
<rect x="182" y="163" width="12" height="12" fill="#389DFA"/>
<rect x="194" y="163" width="12" height="12" fill="#389DFA"/>
<rect x="206" y="163" width="12" height="12" fill="#389DFA"/>
<rect x="218" y="163" width="12" height="12" fill="#389DFA"/>
<rect x="230" y="163" width="12" height="12" fill="#389DFA"/>
<rect x="242" y="163" width="12" height="12" fill="#389DFA"/>
<rect x="254" y="163" width="12" height="12" fill="#389DFA"/>
<rect x="266" y="163" width="12" height="12" fill="#389DFA"/>
<rect x="278" y="163" width="12" height="12" fill="#389DFA"/>
<rect x="290" y="163" width="12" height="12" fill="#389DFA"/>
<rect x="302" y="163" width="12" height="12" fill="#389DFA"/>
<rect x="98" y="175" width="12" height="12" fill="#389DFA"/>
<rect x="110" y="175" width="12" height="12" fill="#389DFA"/>
<rect x="122" y="175" width="12" height="12" fill="#389DFA"/>
<rect x="134" y="175" width="12" height="12" fill="#389DFA"/>
<rect x="146" y="175" width="12" height="12" fill="#389DFA"/>
<rect x="158" y="175" width="12" height="12" fill="#389DFA"/>
<rect x="170" y="175" width="12" height="12" fill="#389DFA"/>
<rect x="182" y="175" width="12" height="12" fill="#389DFA"/>
<rect x="194" y="175" width="12" height="12" fill="#389DFA"/>
<rect x="206" y="175" width="12" height="12" fill="#389DFA"/>
<rect x="218" y="175" width="12" height="12" fill="#389DFA"/>
<rect x="230" y="175" width="12" height="12" fill="#389DFA"/>
<rect x="242" y="175" width="12" height="12" fill="#389DFA"/>
<rect x="254" y="175" width="12" height="12" fill="#389DFA"/>
<rect x="266" y="175" width="12" height="12" fill="#389DFA"/>
<rect x="278" y="175" width="12" height="12" fill="#389DFA"/>
<rect x="110" y="187" width="12" height="12" fill="#2375C2"/>
<rect x="122" y="187" width="12" height="12" fill="#2375C2"/>
<rect x="134" y="187" width="12" height="12" fill="#2375C2"/>
<rect x="146" y="187" width="12" height="12" fill="#2375C2"/>
<rect x="158" y="187" width="12" height="12" fill="#2375C2"/>
<rect x="170" y="187" width="12" height="12" fill="#2375C2"/>
<rect x="182" y="187" width="12" height="12" fill="#2375C2"/>
<rect x="194" y="187" width="12" height="12" fill="#2375C2"/>
<rect x="206" y="187" width="12" height="12" fill="#2375C2"/>
<rect x="218" y="187" width="12" height="12" fill="#2375C2"/>
<rect x="230" y="187" width="12" height="12" fill="#2375C2"/>
<rect x="242" y="187" width="12" height="12" fill="#2375C2"/>
<rect x="134" y="199" width="12" height="12" fill="#2375C2"/>
<rect x="146" y="199" width="12" height="12" fill="#2375C2"/>
<rect x="158" y="199" width="12" height="12" fill="#2375C2"/>
<rect x="170" y="199" width="12" height="12" fill="#2375C2"/>
<rect x="182" y="199" width="12" height="12" fill="#2375C2"/>
<rect x="194" y="199" width="12" height="12" fill="#2375C2"/>
<rect x="206" y="199" width="12" height="12" fill="#2375C2"/>
<rect x="218" y="199" width="12" height="12" fill="#2375C2"/>
</g>
<text x="410" y="136" fill="#EEF6FF" font-family="Consolas, monospace" font-weight="700" font-size="62">Baleen</text>
<text x="412" y="174" fill="#8DA7BA" font-family="Consolas, monospace" font-size="21">Your coding companion</text>
</svg>
